<?xml version="1.0" encoding="utf-8"?>
<!-- Generator: Adobe Illustrator 16.0.0, SVG Export Plug-In . SVG Version: 6.00 Build 0)  -->
<!DOCTYPE svg PUBLIC "-//W3C//DTD SVG 1.1//EN" "http://www.w3.org/Graphics/SVG/1.1/DTD/svg11.dtd">
<svg version="1.1" xmlns="http://www.w3.org/2000/svg" xmlns:xlink="http://www.w3.org/1999/xlink" x="0px" y="0px" width="100px"
	 height="100px" viewBox="0 0 100 100" enable-background="new 0 0 100 100" xml:space="preserve">
<g id="Layer_1" display="none">
	<path display="inline" fill="#010202" d="M65.375,23.431H34.619c-24.607,0-24.607,0-24.607,25.25v2.635
		c0,25.254,0,25.254,24.607,25.254h30.756c24.609,0,24.609,0,24.609-25.254V48.68C89.984,23.431,89.984,23.431,65.375,23.431z
		 M37.225,57.684l-11.326,7.658c-0.518,0.351-1.102,0.515-1.68,0.515c-0.961,0-1.904-0.456-2.486-1.312
		c-0.926-1.377-0.564-3.238,0.803-4.164l11.33-7.668c1.373-0.926,3.24-0.57,4.164,0.801C38.959,54.885,38.596,56.758,37.225,57.684z
		 M78.676,64.545c-0.574,0.855-1.523,1.312-2.488,1.312c-0.574,0-1.156-0.164-1.672-0.515l-11.33-7.658
		c-1.373-0.926-1.732-2.799-0.805-4.17c0.928-1.365,2.795-1.727,4.166-0.801l11.328,7.668C79.25,61.307,79.607,63.168,78.676,64.545
		z M80.035,39.658L52.047,57.813c-0.496,0.32-1.064,0.48-1.633,0.48c-0.557,0-1.111-0.152-1.605-0.457L19.994,39.677
		c-1.404-0.889-1.818-2.737-0.934-4.137c0.879-1.399,2.73-1.822,4.131-0.939l27.201,17.138l26.379-17.119
		c1.389-0.896,3.246-0.505,4.145,0.887C81.822,36.895,81.426,38.754,80.035,39.658z"/>
	<path display="inline" fill="#010202" d="M50.002,10.021c-22.082,0-39.988,17.9-39.988,39.982
		c0,22.082,17.906,39.978,39.988,39.978c22.076,0,39.979-17.896,39.979-39.978C89.98,27.921,72.078,10.021,50.002,10.021z
		 M57.15,52.601l2.424,21.43h-19.15l2.424-21.43c-4.258-2.467-7.127-7.069-7.127-12.345c0-7.885,6.391-14.276,14.281-14.276
		c7.885,0,14.277,6.391,14.277,14.276C64.279,45.531,61.408,50.133,57.15,52.601z"/>
	<path display="inline" fill="#010202" d="M75.643,66.896c-13.01-5.091-16.684-6.257-17.426-12.882
		c2.762-2.644,4.875-6.581,5.904-11.224c0.717-0.483,3.488-2.672,3.488-7.779c0-5.875-2.381-5.584-2.381-5.584
		c1.793-3.806,1.201-8.506-3.785-14.389c-4.99-5.894-8.023-3.033-19.076,0c-12.914,3.535-7.342,14.389-7.342,14.389
		s-2.633,0.596-2.633,5.584s3.357,7.888,3.357,7.888h0.152c1.039,4.59,3.139,8.484,5.881,11.111
		c-0.742,6.628-4.416,7.794-17.432,12.885C9.367,72.763,10.018,88.394,10.018,88.394H50h39.979
		C89.979,88.394,90.631,72.763,75.643,66.896z"/>
	<path display="inline" fill="#010202" d="M87.311,67.97l-8.719-8.493c-1.719-1.674-4.01-2.596-6.447-2.596
		c-2.428,0-4.719,0.922-6.443,2.596l-2.332,2.279c-9.135-7.36-17.906-15.903-25.449-24.788l2.334-2.271
		c3.551-3.461,3.551-9.086,0-12.547l-8.721-8.488c-1.719-1.68-4.006-2.599-6.441-2.599s-4.725,0.919-6.447,2.599l-4.781,4.655
		c-4.412,4.303-5.119,11.116-1.664,16.201C26.178,55.104,44.75,73.183,65.893,86.8c2.176,1.4,4.697,2.139,7.297,2.139
		c3.531,0,6.844-1.338,9.34-3.764l4.781-4.658c1.719-1.676,2.67-3.902,2.67-6.273S89.029,69.646,87.311,67.97z"/>
</g>
<g id="Layer_2">
	<path fill="#010202" d="M96.661,73.074L85.759,62.168c-2.149-2.149-5.015-3.333-8.063-3.333c-3.036,0-5.901,1.184-8.058,3.333
		l-2.917,2.927c-11.423-9.452-22.392-20.422-31.825-31.83l2.919-2.916c4.44-4.444,4.44-11.668,0-16.112L26.91,3.337
		C24.761,1.181,21.901,0,18.855,0c-3.045,0-5.908,1.181-8.063,3.337L4.813,9.315c-5.518,5.525-6.401,14.274-2.081,20.803
		c17.481,26.434,40.706,49.649,67.146,67.135c2.721,1.799,5.874,2.747,9.125,2.747c4.416,0,8.558-1.718,11.68-4.833l5.979-5.981
		C98.811,87.034,100,84.174,100,81.13C100,78.085,98.811,75.226,96.661,73.074z"/>
</g>
</svg>
