<?xml version="1.0" encoding="utf-8"?>
<!-- Generator: Adobe Illustrator 16.0.0, SVG Export Plug-In . SVG Version: 6.00 Build 0)  -->
<!DOCTYPE svg PUBLIC "-//W3C//DTD SVG 1.1//EN" "http://www.w3.org/Graphics/SVG/1.1/DTD/svg11.dtd">
<svg version="1.1" xmlns="http://www.w3.org/2000/svg" xmlns:xlink="http://www.w3.org/1999/xlink" x="0px" y="0px" width="100px"
	 height="100px" viewBox="0 0 100 100" enable-background="new 0 0 100 100" xml:space="preserve">
<g id="Layer_1">
	<path fill="#010202" d="M69.228,16.777H30.77C0,16.777,0,16.777,0,48.35v3.295c0,31.578,0,31.578,30.77,31.578h38.458
		c30.772,0,30.772,0,30.772-31.578V48.35C100,16.777,100,16.777,69.228,16.777z M34.028,59.607l-14.163,9.576
		c-0.647,0.438-1.377,0.644-2.101,0.644c-1.201,0-2.381-0.57-3.109-1.64c-1.158-1.722-0.706-4.05,1.004-5.207l14.167-9.588
		c1.717-1.158,4.052-0.714,5.207,1.001C36.196,56.108,35.742,58.45,34.028,59.607z M85.859,68.188
		c-0.718,1.069-1.905,1.64-3.111,1.64c-0.718,0-1.446-0.205-2.091-0.644L66.49,59.607c-1.717-1.157-2.166-3.499-1.007-5.214
		c1.16-1.707,3.495-2.159,5.21-1.001l14.165,9.588C86.577,64.138,87.024,66.466,85.859,68.188z M87.56,37.068L52.562,59.769
		c-0.62,0.401-1.331,0.602-2.042,0.602c-0.696,0-1.39-0.19-2.007-0.572l-36.03-22.706c-1.756-1.111-2.274-3.423-1.167-5.173
		c1.099-1.75,3.414-2.279,5.166-1.175l34.013,21.43l32.985-21.406c1.736-1.121,4.059-0.631,5.183,1.109
		C89.794,33.613,89.298,35.938,87.56,37.068z"/>
</g>
<g id="Layer_2">
</g>
</svg>
