<?xml version="1.0" encoding="utf-8"?>
<!-- Generator: Adobe Illustrator 16.0.0, SVG Export Plug-In . SVG Version: 6.00 Build 0)  -->
<!DOCTYPE svg PUBLIC "-//W3C//DTD SVG 1.1//EN" "http://www.w3.org/Graphics/SVG/1.1/DTD/svg11.dtd">
<svg version="1.1" xmlns="http://www.w3.org/2000/svg" xmlns:xlink="http://www.w3.org/1999/xlink" x="0px" y="0px" width="100px"
	 height="100px" viewBox="0 0 100 100" enable-background="new 0 0 100 100" xml:space="preserve">
<g id="Layer_1" display="none">
	<path display="inline" fill="#010202" d="M65.375,23.431H34.619c-24.607,0-24.607,0-24.607,25.25v2.635
		c0,25.254,0,25.254,24.607,25.254h30.756c24.609,0,24.609,0,24.609-25.254V48.68C89.984,23.431,89.984,23.431,65.375,23.431z
		 M37.225,57.684l-11.326,7.658c-0.518,0.351-1.102,0.515-1.68,0.515c-0.961,0-1.904-0.456-2.486-1.312
		c-0.926-1.377-0.564-3.238,0.803-4.164l11.33-7.668c1.373-0.926,3.24-0.57,4.164,0.801C38.959,54.885,38.596,56.758,37.225,57.684z
		 M78.676,64.545c-0.574,0.855-1.523,1.312-2.488,1.312c-0.574,0-1.156-0.164-1.672-0.515l-11.33-7.658
		c-1.373-0.926-1.732-2.799-0.805-4.17c0.928-1.365,2.795-1.727,4.166-0.801l11.328,7.668C79.25,61.307,79.607,63.168,78.676,64.545
		z M80.035,39.658L52.047,57.813c-0.496,0.32-1.064,0.48-1.633,0.48c-0.557,0-1.111-0.152-1.605-0.457L19.994,39.677
		c-1.404-0.889-1.818-2.737-0.934-4.137c0.879-1.399,2.73-1.822,4.131-0.939l27.201,17.138l26.379-17.119
		c1.389-0.896,3.246-0.505,4.145,0.887C81.822,36.895,81.426,38.754,80.035,39.658z"/>
	<path display="inline" fill="#010202" d="M50.002,10.021c-22.082,0-39.988,17.9-39.988,39.982
		c0,22.082,17.906,39.978,39.988,39.978c22.076,0,39.979-17.896,39.979-39.978C89.98,27.921,72.078,10.021,50.002,10.021z
		 M57.15,52.601l2.424,21.43h-19.15l2.424-21.43c-4.258-2.467-7.127-7.069-7.127-12.345c0-7.885,6.391-14.276,14.281-14.276
		c7.885,0,14.277,6.391,14.277,14.276C64.279,45.531,61.408,50.133,57.15,52.601z"/>
	<path display="inline" fill="#010202" d="M75.643,66.896c-13.01-5.091-16.684-6.257-17.426-12.882
		c2.762-2.644,4.875-6.581,5.904-11.224c0.717-0.483,3.488-2.672,3.488-7.779c0-5.875-2.381-5.584-2.381-5.584
		c1.793-3.806,1.201-8.506-3.785-14.389c-4.99-5.894-8.023-3.033-19.076,0c-12.914,3.535-7.342,14.389-7.342,14.389
		s-2.633,0.596-2.633,5.584s3.357,7.888,3.357,7.888h0.152c1.039,4.59,3.139,8.484,5.881,11.111
		c-0.742,6.628-4.416,7.794-17.432,12.885C9.367,72.763,10.018,88.394,10.018,88.394H50h39.979
		C89.979,88.394,90.631,72.763,75.643,66.896z"/>
</g>
<g id="Layer_2">
	<path fill="#010202" d="M82.068,71.126C65.8,64.761,61.205,63.302,60.277,55.018c3.453-3.306,6.096-8.229,7.383-14.035
		c0.896-0.604,4.362-3.342,4.362-9.727c0-7.347-2.978-6.982-2.978-6.982c2.242-4.76,1.503-10.638-4.732-17.994
		c-6.24-7.371-10.033-3.793-23.855,0c-16.148,4.42-9.181,17.994-9.181,17.994s-3.292,0.745-3.292,6.982
		c0,6.238,4.198,9.864,4.198,9.864h0.19c1.299,5.74,3.925,10.609,7.354,13.894c-0.928,8.288-5.522,9.747-21.798,16.112
		C-0.809,78.463,0.005,98.009,0.005,98.009h49.997h49.993C99.995,98.009,100.811,78.463,82.068,71.126z"/>
</g>
</svg>
